<?xml version="1.0" encoding="UTF-8"?>
<!DOCTYPE svg PUBLIC "-//W3C//DTD SVG 1.1//EN" "http://www.w3.org/Graphics/SVG/1.1/DTD/svg11.dtd">
<svg xmlns="http://www.w3.org/2000/svg" version="1.1" width="512px" height="512px" style="shape-rendering:geometricPrecision; text-rendering:geometricPrecision; image-rendering:optimizeQuality; fill-rule:evenodd; clip-rule:evenodd" xmlns:xlink="http://www.w3.org/1999/xlink">
<g><path style="opacity:0.99" fill="#49508e" d="M 375.5,437.5 C 374.504,369.571 374.17,301.571 374.5,233.5C 375.333,284.998 375.833,336.665 376,388.5C 426.37,338.717 444.037,279.05 429,209.5C 407.842,140.676 362.342,97.5091 292.5,80C 222.313,67.7262 163.813,88.2262 117,141.5C 72.2711,199.996 64.2711,263.329 93,331.5C 103.526,353.031 117.526,372.031 135,388.5C 135.167,317.332 135.667,246.332 136.5,175.5C 136.831,262.904 136.497,350.237 135.5,437.5C 126.741,440.711 118.075,444.211 109.5,448C 106.833,448.667 104.167,448.667 101.5,448C 97.3187,446.487 93.6521,444.154 90.5,441C 81.6359,432.47 73.1359,423.637 65,414.5C 62.7798,410.405 62.1131,406.072 63,401.5C 67.3045,391.724 71.4712,381.891 75.5,372C 62.0643,349.626 52.0643,325.793 45.5,300.5C 34.7181,296.276 24.0514,291.776 13.5,287C 12.2125,285.59 11.0458,284.09 10,282.5C 7.0747,265.579 6.74136,248.579 9,231.5C 10.0886,227.814 12.2553,224.981 15.5,223C 23.7206,219.39 32.054,216.057 40.5,213C 42.8743,212.152 44.8743,210.819 46.5,209C 52.5949,184.149 62.2615,160.816 75.5,139C 71.3333,129.167 67.1667,119.333 63,109.5C 62.3333,106.833 62.3333,104.167 63,101.5C 64.5127,97.3187 66.846,93.6521 70,90.5C 78.5298,81.6359 87.3631,73.1359 96.5,65C 99.3021,63.4549 102.302,62.6215 105.5,62.5C 116.463,65.8111 127.129,69.9777 137.5,75C 138.5,75.6667 139.5,75.6667 140.5,75C 161.885,61.6427 184.885,52.1427 209.5,46.5C 214.284,36.3248 218.784,25.9915 223,15.5C 224.167,13 226,11.1667 228.5,10C 246.5,6.66667 264.5,6.66667 282.5,10C 285,11.1667 286.833,13 288,15.5C 292.216,25.9915 296.716,36.3248 301.5,46.5C 326.115,52.1427 349.115,61.6427 370.5,75C 379.947,71.9555 389.28,68.2888 398.5,64C 403.167,62 407.833,62 412.5,64C 422.602,72.0988 432.102,80.9321 441,90.5C 444.154,93.6521 446.487,97.3187 448,101.5C 448.667,104.167 448.667,106.833 448,109.5C 443.833,119.333 439.667,129.167 435.5,139C 448.868,160.762 458.534,184.096 464.5,209C 465.444,210.477 466.777,211.477 468.5,212C 478.281,215.724 487.948,219.724 497.5,224C 499.43,226.258 500.93,228.758 502,231.5C 504.259,248.579 503.925,265.579 501,282.5C 499.833,285 498,286.833 495.5,288C 485.541,292.264 475.541,296.431 465.5,300.5C 458.936,325.793 448.936,349.626 435.5,372C 439.667,381.833 443.833,391.667 448,401.5C 448.887,406.072 448.22,410.405 446,414.5C 437.864,423.637 429.364,432.47 420.5,441C 417.348,444.154 413.681,446.487 409.5,448C 406.833,448.667 404.167,448.667 401.5,448C 392.925,444.211 384.259,440.711 375.5,437.5 Z"/></g>
<g><path style="opacity:1" fill="#2e3360" d="M 374.5,233.5 C 374.567,232.041 374.234,230.708 373.5,229.5C 353.065,207.564 332.065,186.064 310.5,165C 309.255,164.209 307.922,163.709 306.5,163.5C 305.737,162.732 304.737,162.232 303.5,162C 251.833,161.333 200.167,161.333 148.5,162C 141.805,164.191 137.805,168.691 136.5,175.5C 135.667,246.332 135.167,317.332 135,388.5C 117.526,372.031 103.526,353.031 93,331.5C 64.2711,263.329 72.2711,199.996 117,141.5C 163.813,88.2262 222.313,67.7262 292.5,80C 362.342,97.5091 407.842,140.676 429,209.5C 444.037,279.05 426.37,338.717 376,388.5C 375.833,336.665 375.333,284.998 374.5,233.5 Z"/></g>
<g><path style="opacity:0.997" fill="#e0edfe" d="M 306.5,163.5 C 306.333,180.837 306.5,198.17 307,215.5C 308.226,221.793 311.726,226.293 317.5,229C 336.164,229.5 354.83,229.667 373.5,229.5C 374.234,230.708 374.567,232.041 374.5,233.5C 374.17,301.571 374.504,369.571 375.5,437.5C 375.667,455.17 375.5,472.836 375,490.5C 372.833,496.667 368.667,500.833 362.5,503C 291.167,503.667 219.833,503.667 148.5,503C 142.333,500.833 138.167,496.667 136,490.5C 135.5,472.836 135.333,455.17 135.5,437.5C 136.497,350.237 136.831,262.904 136.5,175.5C 137.805,168.691 141.805,164.191 148.5,162C 200.167,161.333 251.833,161.333 303.5,162C 304.737,162.232 305.737,162.732 306.5,163.5 Z"/></g>
<g><path style="opacity:1" fill="#9fb9ce" d="M 306.5,163.5 C 307.922,163.709 309.255,164.209 310.5,165C 332.065,186.064 353.065,207.564 373.5,229.5C 354.83,229.667 336.164,229.5 317.5,229C 311.726,226.293 308.226,221.793 307,215.5C 306.5,198.17 306.333,180.837 306.5,163.5 Z"/></g>
<g><path style="opacity:1" fill="#58b390" d="M 209.5,204.5 C 219.268,204.093 222.768,208.426 220,217.5C 210.868,230.623 201.035,243.123 190.5,255C 188.167,255.667 185.833,255.667 183.5,255C 179.667,251.167 175.833,247.333 172,243.5C 168.432,236.123 170.598,231.789 178.5,230.5C 181.597,230.383 184.264,231.383 186.5,233.5C 193.871,223.478 201.537,213.811 209.5,204.5 Z"/></g>
<g><path style="opacity:1" fill="#9fbace" d="M 243.5,221.5 C 254.172,221.333 264.839,221.5 275.5,222C 280.224,224.435 281.724,228.269 280,233.5C 279.065,236.102 277.232,237.602 274.5,238C 264.167,238.667 253.833,238.667 243.5,238C 236.843,232.327 236.843,226.827 243.5,221.5 Z"/></g>
<g><path style="opacity:1" fill="#d64f66" d="M 175.5,272.5 C 178.32,272.248 180.986,272.748 183.5,274C 187.348,278.016 191.348,281.849 195.5,285.5C 200.018,281.148 204.684,276.981 209.5,273C 218.885,272.378 222.385,276.544 220,285.5C 215.786,289.378 211.952,293.545 208.5,298C 212.653,302.822 216.82,307.655 221,312.5C 220.953,321.872 216.453,325.039 207.5,322C 203.652,317.984 199.652,314.151 195.5,310.5C 191.015,314.485 186.682,318.651 182.5,323C 173.333,324.5 169.5,320.667 171,311.5C 174.799,306.699 178.966,302.199 183.5,298C 178.966,293.801 174.799,289.301 171,284.5C 170.333,282.167 170.333,279.833 171,277.5C 172.707,275.963 174.207,274.296 175.5,272.5 Z"/></g>
<g><path style="opacity:1" fill="#9fbace" d="M 243.5,289.5 C 273.835,289.333 304.168,289.5 334.5,290C 340.542,292.837 342.042,297.337 339,303.5C 338.097,304.701 336.931,305.535 335.5,306C 304.833,306.667 274.167,306.667 243.5,306C 239.275,303.337 237.775,299.504 239,294.5C 240.707,292.963 242.207,291.296 243.5,289.5 Z"/></g>
<g><path style="opacity:1" fill="#59b491" d="M 210.5,340.5 C 220.62,341.408 223.453,346.408 219,355.5C 210.196,367.604 201.029,379.438 191.5,391C 188.036,391.817 184.702,391.483 181.5,390C 177.631,386.466 174.131,382.633 171,378.5C 169.227,371.697 171.727,367.697 178.5,366.5C 181.63,366.648 184.13,367.982 186,370.5C 192,362.5 198,354.5 204,346.5C 206.063,344.266 208.229,342.266 210.5,340.5 Z"/></g>
<g><path style="opacity:1" fill="#a0bbcf" d="M 244.5,357.5 C 274.502,357.333 304.502,357.5 334.5,358C 341.705,362.442 342.372,367.775 336.5,374C 305.5,374.667 274.5,374.667 243.5,374C 238.465,370.987 237.298,366.82 240,361.5C 241.397,359.93 242.897,358.596 244.5,357.5 Z"/></g>
<g><path style="opacity:1" fill="#d64f66" d="M 175.5,409.5 C 177.857,409.337 180.19,409.503 182.5,410C 187.301,413.799 191.801,417.966 196,422.5C 200.199,417.966 204.699,413.799 209.5,410C 219.227,408.958 222.727,413.125 220,422.5C 215.984,426.348 212.151,430.348 208.5,434.5C 212.852,439.018 217.019,443.684 221,448.5C 221.97,456.527 218.47,460.361 210.5,460C 205.655,455.82 200.822,451.653 196,447.5C 191.545,450.952 187.378,454.786 183.5,459C 173.375,461.879 169.208,458.046 171,447.5C 175.349,443.318 179.515,438.985 183.5,434.5C 179.148,429.982 174.981,425.316 171,420.5C 169.776,415.626 171.276,411.959 175.5,409.5 Z"/></g>
<g><path style="opacity:1" fill="#a0bace" d="M 243.5,426.5 C 274.168,426.333 304.835,426.5 335.5,427C 340.224,429.435 341.724,433.269 340,438.5C 338.457,440.378 336.624,441.878 334.5,443C 304.5,443.667 274.5,443.667 244.5,443C 236.937,437.827 236.604,432.327 243.5,426.5 Z"/></g>
</svg>
