<?xml version="1.0" encoding="UTF-8"?>
<!DOCTYPE svg PUBLIC "-//W3C//DTD SVG 1.1//EN" "http://www.w3.org/Graphics/SVG/1.1/DTD/svg11.dtd">
<svg xmlns="http://www.w3.org/2000/svg" version="1.1" width="512px" height="512px" style="shape-rendering:geometricPrecision; text-rendering:geometricPrecision; image-rendering:optimizeQuality; fill-rule:evenodd; clip-rule:evenodd" xmlns:xlink="http://www.w3.org/1999/xlink">
<g><path style="opacity:0.998" fill="#eef5fe" d="M 271.5,26.5 C 280.968,57.2948 288.302,88.6281 293.5,120.5C 293.36,122.03 292.693,123.03 291.5,123.5C 288.206,123.259 285.206,124.092 282.5,126C 271.97,136.196 261.803,146.696 252,157.5C 251.163,161.295 251.496,164.961 253,168.5C 256.682,172.015 260.182,175.682 263.5,179.5C 257.5,189.498 253.167,200.165 250.5,211.5C 244.491,211.334 238.491,211.501 232.5,212C 229.616,213.884 227.449,216.384 226,219.5C 225.333,233.833 225.333,248.167 226,262.5C 227.089,266.186 229.255,269.019 232.5,271C 238.528,271.17 244.528,271.67 250.5,272.5C 253.474,283.425 257.807,293.759 263.5,303.5C 259.481,307.685 255.647,312.018 252,316.5C 251.163,320.295 251.496,323.961 253,327.5C 262.833,337.333 272.667,347.167 282.5,357C 287.616,360.21 292.616,360.043 297.5,356.5C 293.899,385.771 288.899,414.771 282.5,443.5C 204.499,443.667 126.499,443.5 48.5,443C 45.8976,442.117 43.7309,440.617 42,438.5C 40.8371,314.746 40.0037,191.08 39.5,67.5C 39.3335,56.8281 39.5002,46.1615 40,35.5C 41.1667,31 44,28.1667 48.5,27C 122.833,26.5 197.166,26.3333 271.5,26.5 Z"/></g>
<g><path style="opacity:1" fill="#d9edfe" d="M 271.5,26.5 C 301.169,26.3334 330.835,26.5 360.5,27C 365.099,28.5981 367.932,31.7647 369,36.5C 369.5,57.164 369.667,77.8306 369.5,98.5C 362.159,98.3337 354.826,98.5003 347.5,99C 343.307,100.526 340.474,103.359 339,107.5C 338.501,112.823 338.334,118.156 338.5,123.5C 327.228,126.26 316.561,130.593 306.5,136.5C 301.75,131.741 296.75,127.408 291.5,123.5C 292.693,123.03 293.36,122.03 293.5,120.5C 288.302,88.6281 280.968,57.2948 271.5,26.5 Z"/></g>
<g><path style="opacity:1" fill="#eb5468" d="M 78.5,63.5 C 132.168,63.3333 185.834,63.5 239.5,64C 240,64.5 240.5,65 241,65.5C 241.667,80.1667 241.667,94.8333 241,109.5C 186.571,110.664 132.071,110.831 77.5,110C 76.3433,95.2413 76.1767,80.4079 77,65.5C 77.7172,64.9558 78.2172,64.2891 78.5,63.5 Z"/></g>
<g><path style="opacity:0.999" fill="#9fd4fe" d="M 39.5,67.5 C 40.0037,191.08 40.8371,314.746 42,438.5C 43.7309,440.617 45.8976,442.117 48.5,443C 126.499,443.5 204.499,443.667 282.5,443.5C 297.833,443.5 313.167,443.5 328.5,443.5C 328.667,454.505 328.5,465.505 328,476.5C 326.514,480.498 323.68,482.998 319.5,484C 215.5,484.667 111.5,484.667 7.5,484C 4.03864,482.695 1.37197,480.529 -0.5,477.5C -0.5,343.167 -0.5,208.833 -0.5,74.5C 1.30904,71.8607 3.64238,69.6941 6.5,68C 17.495,67.5002 28.495,67.3335 39.5,67.5 Z"/></g>
<g><path style="opacity:1" fill="#385e7d" d="M 369.5,98.5 C 371.833,98.5 374.167,98.5 376.5,98.5C 380.66,113.984 383.994,129.65 386.5,145.5C 343.064,140.127 309.23,155.46 285,191.5C 265.961,227.602 267.294,262.936 289,297.5C 313.68,329.459 346.18,342.793 386.5,337.5C 384.294,353.322 381.294,368.989 377.5,384.5C 374.833,384.5 372.167,384.5 369.5,384.5C 361.083,384.906 352.749,384.406 344.5,383C 341.865,381.039 340.031,378.539 339,375.5C 338.501,370.177 338.334,364.844 338.5,359.5C 327.155,356.827 316.488,352.494 306.5,346.5C 302.743,349.251 299.743,352.585 297.5,356.5C 292.616,360.043 287.616,360.21 282.5,357C 272.667,347.167 262.833,337.333 253,327.5C 251.496,323.961 251.163,320.295 252,316.5C 255.647,312.018 259.481,307.685 263.5,303.5C 257.807,293.759 253.474,283.425 250.5,272.5C 244.528,271.67 238.528,271.17 232.5,271C 229.255,269.019 227.089,266.186 226,262.5C 225.333,248.167 225.333,233.833 226,219.5C 227.449,216.384 229.616,213.884 232.5,212C 238.491,211.501 244.491,211.334 250.5,211.5C 253.167,200.165 257.5,189.498 263.5,179.5C 260.182,175.682 256.682,172.015 253,168.5C 251.496,164.961 251.163,161.295 252,157.5C 261.803,146.696 271.97,136.196 282.5,126C 285.206,124.092 288.206,123.259 291.5,123.5C 296.75,127.408 301.75,131.741 306.5,136.5C 316.561,130.593 327.228,126.26 338.5,123.5C 338.334,118.156 338.501,112.823 339,107.5C 340.474,103.359 343.307,100.526 347.5,99C 354.826,98.5003 362.159,98.3337 369.5,98.5 Z"/></g>
<g><path style="opacity:1" fill="#2b4d66" d="M 376.5,98.5 C 382.621,98.0899 388.621,98.5899 394.5,100C 396.617,101.731 398.117,103.898 399,106.5C 399.191,112.083 399.691,117.583 400.5,123C 411.094,125.798 421.094,129.965 430.5,135.5C 434.318,132.182 437.985,128.682 441.5,125C 447.266,122.554 452.599,123.221 457.5,127C 467.734,136.564 477.234,146.731 486,157.5C 486.837,161.295 486.504,164.961 485,168.5C 481.318,172.015 477.818,175.682 474.5,179.5C 479.993,188.971 484.326,198.971 487.5,209.5C 493.005,210.233 498.505,210.9 504,211.5C 507.28,212.622 509.78,214.622 511.5,217.5C 511.5,233.5 511.5,249.5 511.5,265.5C 509.628,268.529 506.961,270.695 503.5,272C 498.136,272.171 492.802,272.671 487.5,273.5C 484.234,284.134 479.901,294.301 474.5,304C 478,307.5 481.5,311 485,314.5C 487.168,319.657 486.835,324.657 484,329.5C 474.103,340.067 463.603,349.9 452.5,359C 449.5,359.667 446.5,359.667 443.5,359C 439.018,355.353 434.685,351.519 430.5,347.5C 421.029,352.993 411.029,357.326 400.5,360.5C 399.671,365.802 399.171,371.136 399,376.5C 398.117,379.102 396.617,381.269 394.5,383C 388.956,384.404 383.29,384.904 377.5,384.5C 381.294,368.989 384.294,353.322 386.5,337.5C 436.664,324.366 463.33,291.866 466.5,240C 462.038,189.704 435.371,158.204 386.5,145.5C 383.994,129.65 380.66,113.984 376.5,98.5 Z"/></g>
<g><path style="opacity:1" fill="#31526a" d="M 73.5,139.5 C 117.168,139.333 160.835,139.5 204.5,140C 210.629,142.581 211.962,146.748 208.5,152.5C 207.335,153.584 206.002,154.417 204.5,155C 161.167,155.667 117.833,155.667 74.5,155C 69.7762,152.565 68.2762,148.731 70,143.5C 71.3756,142.295 72.5423,140.962 73.5,139.5 Z"/></g>
<g><path style="opacity:1" fill="#d7ecfd" d="M 386.5,145.5 C 435.371,158.204 462.038,189.704 466.5,240C 463.33,291.866 436.664,324.366 386.5,337.5C 346.18,342.793 313.68,329.459 289,297.5C 267.294,262.936 265.961,227.602 285,191.5C 309.23,155.46 343.064,140.127 386.5,145.5 Z"/></g>
<g><path style="opacity:1" fill="#9fd4fd" d="M 389.5,162.5 C 391.913,187.107 393.246,211.773 393.5,236.5C 392.317,235.496 390.984,234.662 389.5,234C 383.5,233.667 377.5,233.333 371.5,233C 362.804,223.969 353.804,215.303 344.5,207C 335.382,206.794 332.549,210.961 336,219.5C 345.5,229 355,238.5 364.5,248C 372.395,249.601 380.395,249.934 388.5,249C 390.193,248.153 391.86,247.32 393.5,246.5C 393.4,271.236 392.066,295.902 389.5,320.5C 385.317,321.907 380.984,322.574 376.5,322.5C 376.665,319.15 376.498,315.817 376,312.5C 372.455,306.791 368.121,306.125 363,310.5C 361.646,314.363 361.146,318.363 361.5,322.5C 344.718,321.435 330.051,315.435 317.5,304.5C 319.856,301.978 322.023,299.312 324,296.5C 324.452,288.292 320.619,285.125 312.5,287C 310.333,289.167 308.167,291.333 306,293.5C 295.454,280.701 289.287,266.035 287.5,249.5C 292.121,250.007 296.454,249.174 300.5,247C 303.345,242.736 303.012,238.736 299.5,235C 295.637,233.646 291.637,233.146 287.5,233.5C 289.011,216.818 295.178,202.152 306,189.5C 308.606,193.289 312.106,195.622 316.5,196.5C 322.631,195.871 325.131,192.538 324,186.5C 322.023,183.688 319.856,181.022 317.5,178.5C 329.937,167.239 344.603,161.239 361.5,160.5C 359.213,172.728 363.713,176.728 375,172.5C 376.354,168.637 376.854,164.637 376.5,160.5C 381.076,160.438 385.409,161.105 389.5,162.5 Z"/></g>
<g><path style="opacity:1" fill="#85beef" d="M 389.5,162.5 C 400.676,165.505 410.843,170.505 420,177.5C 420.667,178.167 420.667,178.833 420,179.5C 417.626,181.539 415.626,183.872 414,186.5C 413.329,194.159 416.829,197.326 424.5,196C 427.295,194.207 429.795,192.04 432,189.5C 442.829,202.148 448.662,216.814 449.5,233.5C 438.448,231.712 434.281,236.045 437,246.5C 440.671,249.196 444.838,250.196 449.5,249.5C 448.274,266.015 442.44,280.682 432,293.5C 429.795,290.96 427.295,288.793 424.5,287C 418.243,285.257 414.576,287.59 413.5,294C 415.39,298.166 417.556,301.999 420,305.5C 410.828,312.503 400.661,317.503 389.5,320.5C 392.066,295.902 393.4,271.236 393.5,246.5C 394.833,243.167 394.833,239.833 393.5,236.5C 393.246,211.773 391.913,187.107 389.5,162.5 Z"/></g>
<g><path style="opacity:1" fill="#40c4a5" d="M 78.5,185.5 C 92.8372,185.333 107.171,185.5 121.5,186C 122,186.5 122.5,187 123,187.5C 123.667,202.167 123.667,216.833 123,231.5C 122.5,232 122,232.5 121.5,233C 107.167,233.667 92.8333,233.667 78.5,233C 78,232.5 77.5,232 77,231.5C 76.3333,216.833 76.3333,202.167 77,187.5C 77.7172,186.956 78.2172,186.289 78.5,185.5 Z"/></g>
<g><path style="opacity:1" fill="#31526a" d="M 156.5,185.5 C 173.503,185.333 190.503,185.5 207.5,186C 211.861,188.226 213.361,191.726 212,196.5C 211.167,198.667 209.667,200.167 207.5,201C 190.5,201.667 173.5,201.667 156.5,201C 151.465,197.987 150.298,193.82 153,188.5C 154.518,187.837 155.685,186.837 156.5,185.5 Z"/></g>
<g><path style="opacity:1" fill="#2d5069" d="M 393.5,236.5 C 394.833,239.833 394.833,243.167 393.5,246.5C 391.86,247.32 390.193,248.153 388.5,249C 380.395,249.934 372.395,249.601 364.5,248C 355,238.5 345.5,229 336,219.5C 332.549,210.961 335.382,206.794 344.5,207C 353.804,215.303 362.804,223.969 371.5,233C 377.5,233.333 383.5,233.667 389.5,234C 390.984,234.662 392.317,235.496 393.5,236.5 Z"/></g>
<g><path style="opacity:1" fill="#2d4e67" d="M 156.5,217.5 C 169.171,217.333 181.838,217.5 194.5,218C 199.143,220.072 200.643,223.572 199,228.5C 198.5,230.333 197.333,231.5 195.5,232C 182.167,232.667 168.833,232.667 155.5,232C 151.788,229.487 150.622,225.987 152,221.5C 153.397,219.93 154.897,218.596 156.5,217.5 Z"/></g>
<g><path style="opacity:1" fill="#3cc3a4" d="M 78.5,272.5 C 93.4116,272.176 108.245,272.509 123,273.5C 123.824,288.741 123.657,303.908 122.5,319C 107.259,319.824 92.0922,319.657 77,318.5C 76.3333,303.833 76.3333,289.167 77,274.5C 77.7172,273.956 78.2172,273.289 78.5,272.5 Z"/></g>
<g><path style="opacity:1" fill="#31526a" d="M 156.5,272.5 C 168.505,272.333 180.505,272.5 192.5,273C 197.143,275.072 198.643,278.572 197,283.5C 196.167,285.667 194.667,287.167 192.5,288C 180.5,288.667 168.5,288.667 156.5,288C 149.888,282.836 149.888,277.67 156.5,272.5 Z"/></g>
<g><path style="opacity:1" fill="#2c4d66" d="M 155.5,304.5 C 173.836,304.333 192.17,304.5 210.5,305C 217.167,309.667 217.167,314.333 210.5,319C 192.167,319.667 173.833,319.667 155.5,319C 150.214,314.169 150.214,309.335 155.5,304.5 Z"/></g>
<g><path style="opacity:1" fill="#d8edfe" d="M 369.5,384.5 C 369.667,400.837 369.5,417.17 369,433.5C 368.285,438.105 365.785,441.271 361.5,443C 350.505,443.5 339.505,443.667 328.5,443.5C 313.167,443.5 297.833,443.5 282.5,443.5C 288.899,414.771 293.899,385.771 297.5,356.5C 299.743,352.585 302.743,349.251 306.5,346.5C 316.488,352.494 327.155,356.827 338.5,359.5C 338.334,364.844 338.501,370.177 339,375.5C 340.031,378.539 341.865,381.039 344.5,383C 352.749,384.406 361.083,384.906 369.5,384.5 Z"/></g>
<g><path style="opacity:1" fill="#3bc3a4" d="M 77.5,359.5 C 92.7448,359.176 107.911,359.509 123,360.5C 123.824,375.741 123.657,390.908 122.5,406C 107.833,406.667 93.1667,406.667 78.5,406C 78,405.5 77.5,405 77,404.5C 76.1842,389.426 76.3509,374.426 77.5,359.5 Z"/></g>
<g><path style="opacity:1" fill="#2b4d66" d="M 155.5,359.5 C 182.835,359.333 210.169,359.5 237.5,360C 242.689,362.913 243.856,367.08 241,372.5C 240.25,373.126 239.416,373.626 238.5,374C 210.833,374.667 183.167,374.667 155.5,374C 150.214,369.169 150.214,364.335 155.5,359.5 Z"/></g>
<g><path style="opacity:1" fill="#2b4d66" d="M 155.5,391.5 C 193.501,391.333 231.501,391.5 269.5,392C 272.683,393.018 274.016,395.185 273.5,398.5C 273.664,402.177 271.997,404.677 268.5,406C 230.833,406.667 193.167,406.667 155.5,406C 150.189,401.045 150.189,396.212 155.5,391.5 Z"/></g>
</svg>
